<?xml version="1.0" encoding="UTF-8" standalone="no"?>
<!DOCTYPE svg PUBLIC "-//W3C//DTD SVG 1.1//EN" "http://www.w3.org/Graphics/SVG/1.1/DTD/svg11.dtd">
<svg width="100%" height="100%" viewBox="0 0 16 16" version="1.1" xmlns="http://www.w3.org/2000/svg"
    xmlns:xlink="http://www.w3.org/1999/xlink" xml:space="preserve" xmlns:serif="http://www.serif.com/"
    style="fill-rule:evenodd;clip-rule:evenodd;stroke-linejoin:round;stroke-miterlimit:2;">
    <g transform="matrix(0.425308,0,0,0.356052,-1529.82,-166.343)">
        <path
            d="M3607.51,507.914C3606.2,507.914 3605.19,507.551 3604.49,506.826C3603.79,506.101 3603.43,505.065 3603.43,503.719L3603.43,502.444C3603.43,501.914 3603.6,501.402 3603.89,501.004C3605.04,499.444 3608.13,495.263 3610.22,492.434C3611.39,490.843 3611.39,488.457 3610.22,486.865C3608.46,484.48 3606,481.134 3604.57,479.201C3603.84,478.205 3603.43,476.923 3603.43,475.597L3603.43,475.596C3603.43,474.25 3603.79,473.214 3604.49,472.489C3605.19,471.764 3606.2,471.401 3607.51,471.401L3625.06,471.401C3626.06,471.401 3626.82,471.669 3627.34,472.204C3627.86,472.739 3628.12,473.507 3628.12,474.509C3628.12,475.544 3627.86,476.33 3627.34,476.865C3626.82,477.4 3626.06,477.668 3625.06,477.668L3610.88,477.668C3610.88,477.668 3615.05,483.327 3617.66,486.867C3618.83,488.458 3618.83,490.844 3617.66,492.436C3615.05,495.98 3610.88,501.647 3610.88,501.647L3625.06,501.647C3626.06,501.647 3626.82,501.915 3627.34,502.45C3627.86,502.985 3628.12,503.753 3628.12,504.754C3628.12,505.79 3627.86,506.576 3627.34,507.111C3626.82,507.646 3626.06,507.914 3625.06,507.914L3607.51,507.914Z"
            style="fill:rgb(242,183,5);fill-rule:nonzero;" />
    </g>
    <g transform="matrix(0.342761,0,-7.61082e-17,0.293365,-1158.19,-775.43)">
        <path
            d="M3415,2664.5C3415,2663.58 3414.68,2662.68 3414.12,2662.03C3413.56,2661.37 3412.8,2661 3412,2661C3411.2,2661 3410.44,2661.37 3409.88,2662.03C3409.32,2662.68 3409,2663.58 3409,2664.5L3409,2676.5C3409,2677.43 3409.32,2678.32 3409.88,2678.97C3410.44,2679.63 3411.2,2680 3412,2680C3412.8,2680 3413.56,2679.63 3414.12,2678.97C3414.68,2678.32 3415,2677.43 3415,2676.5L3415,2664.5Z"
            style="fill:rgb(242,183,5);" />
    </g>
</svg>