<svg width="48" height="48" viewBox="0 0 48 48" fill="none" xmlns="http://www.w3.org/2000/svg">
<g clip-path="url(#clip0_3010_15948)">
<path d="M35 9C31.1 9 26.9 9.8 24 12C21.1 9.8 16.9 9 13 9C10.1 9 7.02 9.44 4.44 10.58C2.98 11.24 2 12.66 2 14.28V36.84C2 39.44 4.44 41.36 6.96 40.72C8.92 40.22 11 40 13 40C16.12 40 19.44 40.52 22.12 41.84C23.32 42.44 24.68 42.44 25.86 41.84C28.54 40.5 31.86 40 34.98 40C36.98 40 39.06 40.22 41.02 40.72C43.54 41.38 45.98 39.46 45.98 36.84V14.28C45.98 12.66 45 11.24 43.54 10.58C40.98 9.44 37.9 9 35 9ZM42 34.46C42 35.72 40.84 36.64 39.6 36.42C38.1 36.14 36.54 36.02 35 36.02C31.6 36.02 26.7 37.32 24 39.02V16C26.7 14.3 31.6 13 35 13C36.84 13 38.66 13.18 40.4 13.56C41.32 13.76 42 14.58 42 15.52V34.46Z" fill="#F2B705"/>
<path d="M27.9598 22.0202C27.3198 22.0202 26.7398 21.6202 26.5398 20.9802C26.2798 20.2002 26.7198 19.3402 27.4998 19.1002C30.5798 18.1002 34.5598 17.7802 38.2198 18.2002C39.0398 18.3002 39.6398 19.0402 39.5398 19.8602C39.4398 20.6802 38.6998 21.2802 37.8798 21.1802C34.6398 20.8002 31.0998 21.1002 28.4198 21.9602C28.2598 21.9802 28.0998 22.0202 27.9598 22.0202Z" fill="#F2B705"/>
<path d="M27.9598 27.34C27.3198 27.34 26.7398 26.94 26.5398 26.3C26.2798 25.52 26.7198 24.66 27.4998 24.42C30.5598 23.42 34.5598 23.1 38.2198 23.52C39.0398 23.62 39.6398 24.36 39.5398 25.18C39.4398 26 38.6998 26.6 37.8798 26.5C34.6398 26.12 31.0998 26.42 28.4198 27.28C28.2598 27.32 28.0998 27.34 27.9598 27.34Z" fill="#F2B705"/>
<path d="M27.9598 32.6598C27.3198 32.6598 26.7398 32.2598 26.5398 31.6198C26.2798 30.8398 26.7198 29.9798 27.4998 29.7398C30.5598 28.7398 34.5598 28.4198 38.2198 28.8398C39.0398 28.9398 39.6398 29.6798 39.5398 30.4998C39.4398 31.3198 38.6998 31.8998 37.8798 31.8198C34.6398 31.4398 31.0998 31.7398 28.4198 32.5998C28.2598 32.6398 28.0998 32.6598 27.9598 32.6598Z" fill="#F2B705"/>
</g>
<defs>
<clipPath id="clip0_3010_15948">
<rect width="48" height="48" fill="white"/>
</clipPath>
</defs>
</svg>
