<svg width="40" height="40" viewBox="0 0 40 40" fill="none" xmlns="http://www.w3.org/2000/svg">
<g clip-path="url(#clip0_3010_15988)">
<path d="M5 8.33333V18.3333H13.3333L12.3333 14.3667C12.0333 13.1333 13.1333 12.0333 14.3667 12.3333L18.3333 13.3333V5H8.33333C6.5 5 5 6.5 5 8.33333ZM13.3333 21.6667H5V31.6667C5 33.5 6.5 35 8.33333 35H18.3333V26.6667L14.3667 27.6667C13.15 27.9667 12.0333 26.8667 12.35 25.65L13.3333 21.6667ZM25.6333 27.6667L21.6667 26.6667V35H31.6667C33.5 35 35 33.5 35 31.6667V21.6667H26.6667L27.6667 25.6333C27.9667 26.8667 26.8667 27.9667 25.6333 27.6667ZM31.6667 5H21.6667V13.3333L25.6333 12.3333C26.85 12.0333 27.9667 13.1333 27.65 14.35L26.6667 18.3333H35V8.33333C35 6.5 33.5 5 31.6667 5Z" fill="#F2B705"/>
</g>
<defs>
<clipPath id="clip0_3010_15988">
<rect width="40" height="40" fill="white"/>
</clipPath>
</defs>
</svg>
