<svg width="48" height="48" viewBox="0 0 48 48" fill="none" xmlns="http://www.w3.org/2000/svg">
<g clip-path="url(#clip0_3010_15949)">
<path d="M26.0006 17.1401C24.4206 17.1401 23.1406 18.4201 23.1406 20.0001C23.1406 21.5801 24.4206 22.8601 26.0006 22.8601C27.5806 22.8601 28.8606 21.5801 28.8606 20.0001C28.8606 18.4201 27.5806 17.1401 26.0006 17.1401Z" fill="#F2B705"/>
<path d="M26.4196 6.00004C18.7396 5.78004 12.4196 11.74 12.0396 19.28L8.19965 24.4C7.69965 25.06 8.17965 26 8.99965 26H11.9996V32C11.9996 34.2 13.7996 36 15.9996 36H17.9996V40C17.9996 41.1 18.8996 42 19.9996 42H29.9996C31.0996 42 31.9996 41.1 31.9996 40V32.64C36.8797 30.32 40.1996 25.28 39.9996 19.48C39.7196 12.24 33.6396 6.22004 26.4196 6.00004ZM31.9996 20C31.9996 20.26 31.9796 20.52 31.9596 20.78L33.6196 22.1C33.7796 22.22 33.8197 22.42 33.7197 22.6L32.1196 25.38C32.0196 25.56 31.7996 25.62 31.6396 25.56L29.6596 24.76C29.2396 25.08 28.7996 25.34 28.3196 25.54L27.9996 27.66C27.9796 27.86 27.7997 28 27.5996 28H24.3996C24.1996 28 24.0396 27.86 23.9996 27.66L23.6996 25.54C23.1996 25.34 22.7596 25.08 22.3396 24.76L20.3596 25.56C20.1796 25.62 19.9597 25.56 19.8596 25.38L18.2596 22.6C18.1596 22.44 18.1996 22.22 18.3596 22.1L20.0396 20.78C20.0196 20.52 19.9996 20.26 19.9996 20C19.9996 19.74 20.0396 19.46 20.0796 19.22L18.3796 17.9C18.2196 17.78 18.1796 17.58 18.2796 17.38L19.8796 14.62C19.9796 14.44 20.1796 14.38 20.3596 14.44L22.3596 15.24C22.7596 14.94 23.2197 14.66 23.6996 14.46L23.9996 12.34C24.0396 12.14 24.1996 12 24.3996 12H27.5996C27.7997 12 27.9596 12.14 27.9996 12.34L28.2996 14.46C28.7796 14.66 29.2196 14.92 29.6396 15.24L31.6396 14.44C31.8196 14.38 32.0396 14.44 32.1196 14.62L33.7197 17.38C33.8197 17.56 33.7796 17.78 33.6196 17.9L31.9196 19.22C31.9796 19.46 31.9996 19.72 31.9996 20Z" fill="#F2B705"/>
</g>
<defs>
<clipPath id="clip0_3010_15949">
<rect width="48" height="48" fill="white"/>
</clipPath>
</defs>
</svg>
